<?xml version="1.0" encoding="UTF-8"?><svg id="a" xmlns="http://www.w3.org/2000/svg" viewBox="0 0 56 56"><defs><style>.b{fill:#444;}</style></defs><g><path class="b" d="M11.12,38.71c.19,0,.35-.16,.35-.35v-.94c0-.19-.16-.35-.35-.35s-.35,.16-.35,.35v.94c0,.19,.16,.35,.35,.35Z"/><path class="b" d="M11.12,38.83c-.26,0-.48-.21-.48-.48v-.94c0-.26,.21-.48,.48-.48s.48,.21,.48,.48v.94c0,.26-.21,.48-.48,.48Zm0-1.65c-.13,0-.23,.1-.23,.23v.94c0,.13,.1,.23,.23,.23s.23-.1,.23-.23v-.94c0-.13-.1-.23-.23-.23Z"/></g><g><path class="b" d="M11.12,39.4c-.19,0-.35,.16-.35,.35v.94c0,.19,.16,.35,.35,.35s.35-.16,.35-.35v-.94c0-.19-.16-.35-.35-.35Z"/><path class="b" d="M11.12,41.18c-.26,0-.48-.21-.48-.48v-.94c0-.26,.21-.48,.48-.48s.48,.21,.48,.48v.94c0,.26-.21,.48-.48,.48Zm0-1.65c-.13,0-.23,.1-.23,.23v.94c0,.13,.1,.23,.23,.23s.23-.1,.23-.23v-.94c0-.13-.1-.23-.23-.23Z"/></g><g><path class="b" d="M12.77,38.7h-.94c-.19,0-.35,.16-.35,.35s.16,.35,.35,.35h.94c.19,0,.35-.16,.35-.35s-.16-.35-.35-.35Z"/><path class="b" d="M12.77,39.53h-.94c-.26,0-.48-.21-.48-.48s.21-.48,.48-.48h.94c.26,0,.48,.21,.48,.48s-.21,.48-.48,.48Zm-.94-.71c-.13,0-.23,.1-.23,.23s.1,.23,.23,.23h.94c.13,0,.23-.1,.23-.23s-.1-.23-.23-.23h-.94Z"/></g><g><path class="b" d="M10.42,38.7h-.94c-.19,0-.35,.16-.35,.35s.16,.35,.35,.35h.94c.19,0,.35-.16,.35-.35s-.16-.35-.35-.35Z"/><path class="b" d="M10.42,39.53h-.94c-.26,0-.48-.21-.48-.48s.21-.48,.48-.48h.94c.26,0,.48,.21,.48,.48s-.21,.48-.48,.48Zm-.94-.71c-.13,0-.23,.1-.23,.23s.1,.23,.23,.23h.94c.13,0,.23-.1,.23-.23s-.1-.23-.23-.23h-.94Z"/></g><g><path class="b" d="M46.08,14.81c.19,0,.35-.16,.35-.35v-.94c0-.19-.16-.35-.35-.35s-.35,.16-.35,.35v.94c0,.19,.16,.35,.35,.35Z"/><path class="b" d="M46.08,14.93c-.26,0-.48-.21-.48-.48v-.94c0-.26,.21-.48,.48-.48s.48,.21,.48,.48v.94c0,.26-.21,.48-.48,.48Zm0-1.65c-.13,0-.23,.1-.23,.23v.94c0,.13,.1,.23,.23,.23s.23-.1,.23-.23v-.94c0-.13-.1-.23-.23-.23Z"/></g><g><path class="b" d="M46.08,15.5c-.19,0-.35,.16-.35,.35v.94c0,.19,.16,.35,.35,.35s.35-.16,.35-.35v-.94c0-.19-.16-.35-.35-.35Z"/><path class="b" d="M46.08,17.27c-.26,0-.48-.21-.48-.48v-.94c0-.26,.21-.48,.48-.48s.48,.21,.48,.48v.94c0,.26-.21,.48-.48,.48Zm0-1.65c-.13,0-.23,.1-.23,.23v.94c0,.13,.1,.23,.23,.23s.23-.1,.23-.23v-.94c0-.13-.1-.23-.23-.23Z"/></g><g><path class="b" d="M47.72,14.8h-.94c-.19,0-.35,.16-.35,.35s.16,.35,.35,.35h.94c.19,0,.35-.16,.35-.35s-.16-.35-.35-.35Z"/><path class="b" d="M47.72,15.63h-.94c-.26,0-.48-.21-.48-.48s.21-.48,.48-.48h.94c.26,0,.48,.21,.48,.48s-.21,.48-.48,.48Zm-.94-.71c-.13,0-.23,.1-.23,.23s.1,.23,.23,.23h.94c.13,0,.23-.1,.23-.23s-.1-.23-.23-.23h-.94Z"/></g><g><path class="b" d="M45.38,14.8h-.94c-.19,0-.35,.16-.35,.35s.16,.35,.35,.35h.94c.19,0,.35-.16,.35-.35s-.16-.35-.35-.35Z"/><path class="b" d="M45.38,15.63h-.94c-.26,0-.48-.21-.48-.48s.21-.48,.48-.48h.94c.26,0,.48,.21,.48,.48s-.21,.48-.48,.48Zm-.94-.71c-.13,0-.23,.1-.23,.23s.1,.23,.23,.23h.94c.13,0,.23-.1,.23-.23s-.1-.23-.23-.23h-.94Z"/></g><g><path class="b" d="M30.51,42c.19,0,.35-.16,.35-.35s-.16-.35-.35-.35h-11.73l-.13-.34V8.87h22.69V26.41c0,.19,.16,.35,.35,.35s.35-.16,.35-.35V8.51c0-.19-.16-.35-.35-.35h-10.2l-.94-2.53c-.07-.18-.27-.28-.45-.21l-7.43,2.74h-4.37c-.19,0-.35,.16-.35,.35v1.39l-9.8,3.61c-.09,.03-.16,.1-.2,.18-.04,.08-.04,.18-.01,.27l10,27.11v.57c0,.19,.15,.34,.34,.35l1.13,3.05c.05,.14,.19,.23,.33,.23,.04,0,.08,0,.12-.02l8.84-3.26h1.8Zm-.49-35.79l.72,1.96h-6.02l5.3-1.96Zm-12.06,4.45v28.38L8.73,14.05l9.22-3.4Zm2.01,33.82l-.91-2.48h7.63l-6.71,2.48Z"/><path class="b" d="M19.75,45.4c-.2,0-.38-.12-.45-.31l-1.1-2.98c-.21-.05-.37-.24-.37-.46v-.55L7.83,14.01c-.04-.12-.04-.25,.01-.37,.05-.12,.15-.21,.27-.25l9.71-3.58v-1.3c0-.26,.21-.48,.48-.48h4.35l7.41-2.73c.12-.04,.25-.04,.36,.01,.12,.05,.2,.15,.25,.27l.91,2.45h10.12c.26,0,.48,.21,.48,.48V26.41c0,.26-.21,.48-.48,.48s-.48-.21-.48-.48V8.99H18.78v31.93l.09,.24h11.64c.26,0,.48,.21,.48,.48s-.21,.48-.48,.48h-1.77l-8.81,3.25c-.06,.02-.11,.03-.17,.03Zm-1.45-37.12c-.13,0-.23,.1-.23,.23v1.47l-.08,.03-9.8,3.61c-.06,.02-.1,.06-.13,.12-.03,.06-.03,.12,0,.18l10.01,27.15v.57c0,.12,.1,.22,.22,.22h.08l1.16,3.14c.04,.11,.17,.18,.3,.13l8.88-3.27h1.84c.11-.02,.19-.11,.19-.22,0-.13-.1-.23-.23-.23h-11.81l-.17-.47V8.74h22.94V26.41c0,.13,.1,.23,.23,.23s.23-.1,.23-.23V8.51c0-.13-.1-.23-.23-.23h-10.29l-.97-2.61c-.02-.06-.06-.1-.12-.13s-.12-.03-.17,0l-7.47,2.75h-4.37Zm1.58,36.35l-1.02-2.76h8.51l-7.49,2.76Zm-.66-2.51l.81,2.19,5.94-2.19h-6.75Zm-1.15-2.39L8.57,13.98l9.51-3.5v29.26ZM8.89,14.13l8.93,24.21V10.84l-8.93,3.29Zm22.03-5.84h-6.9l6.07-2.24,.83,2.24Zm-5.5-.25h5.15l-.62-1.67-4.53,1.67Z"/></g><g><path class="b" d="M40.54,27.7c-1.75-.78-3.7-.84-5.49-.16-1.79,.68-3.21,2.02-3.99,3.77-.78,1.75-.84,3.7-.16,5.49,.64,1.68,1.86,3.03,3.46,3.84l-.5,1.12-1.2-.54c-.18-.08-.39,0-.47,.18l-2.84,6.35c-.46,1.02,0,2.22,1.02,2.68,.27,.12,.55,.18,.83,.18,.77,0,1.51-.44,1.85-1.2l2.84-6.35c.04-.08,.04-.18,0-.27s-.1-.16-.19-.2l-1.2-.54,.5-1.12c.84,.33,1.72,.5,2.6,.5s1.73-.16,2.56-.47c1.79-.68,3.21-2.02,3.99-3.77s.84-3.7,.16-5.49c-.68-1.79-2.02-3.21-3.77-3.99Zm-8.15,21.41c-.14,.32-.41,.57-.73,.69s-.69,.12-1.01-.03-.57-.41-.69-.73-.12-.69,.03-1.01l2.7-6.03,2.41,1.08-2.7,6.03Zm11.12-12.21c-.71,1.58-1.99,2.79-3.6,3.4-1.62,.62-3.38,.57-4.95-.14s-2.79-1.99-3.4-3.6c-.62-1.62-.57-3.38,.14-4.95s1.99-2.79,3.6-3.4c.75-.29,1.53-.43,2.31-.43,.9,0,1.8,.19,2.64,.57,1.58,.71,2.79,1.99,3.4,3.6,.62,1.62,.57,3.38-.14,4.95Z"/><path class="b" d="M31.19,50.73c-.3,0-.6-.06-.88-.19-.52-.23-.93-.66-1.13-1.2-.2-.54-.19-1.12,.05-1.65l2.84-6.35c.05-.12,.15-.21,.27-.25,.12-.04,.25-.04,.37,.01l1.09,.49,.4-.89c-1.57-.83-2.78-2.19-3.41-3.85-.7-1.82-.64-3.81,.16-5.59,.8-1.78,2.24-3.15,4.06-3.84,1.82-.7,3.81-.64,5.59,.16h0c1.78,.8,3.14,2.24,3.84,4.06,.7,1.82,.64,3.81-.16,5.59-.8,1.79-2.24,3.15-4.06,3.84-1.65,.62-3.43,.65-5.14,.01l-.4,.89,1.09,.49c.12,.05,.2,.14,.25,.27,.05,.12,.04,.25,0,.37l-2.84,6.35c-.34,.77-1.12,1.27-1.96,1.27Zm1.32-9.41s-.05,0-.08,.01c-.06,.02-.1,.06-.13,.12l-2.84,6.35c-.21,.46-.22,.98-.04,1.45,.18,.48,.54,.85,1,1.06,.25,.11,.51,.17,.78,.17,.75,0,1.43-.44,1.74-1.12l2.84-6.35c.03-.06,.03-.12,0-.17-.02-.06-.07-.11-.12-.13l-1.32-.59,.6-1.34,.11,.04c1.69,.66,3.44,.65,5.07,.03,1.76-.67,3.15-1.99,3.92-3.71,.77-1.72,.82-3.64,.15-5.4-.67-1.76-1.99-3.15-3.71-3.92h0c-1.72-.77-3.64-.82-5.4-.15-1.76,.67-3.15,1.99-3.92,3.71-.77,1.72-.82,3.64-.15,5.4,.62,1.63,1.83,2.97,3.4,3.77l.11,.05-.6,1.34-1.32-.59s-.06-.02-.09-.02Zm-1.32,8.7c-.2,0-.4-.04-.59-.13-.35-.16-.62-.45-.76-.8-.14-.36-.13-.76,.03-1.11l2.75-6.14,2.64,1.18-.05,.11-2.7,6.03c-.16,.35-.44,.62-.8,.76-.17,.06-.34,.09-.52,.09Zm1.56-7.85l-2.65,5.91c-.13,.29-.14,.61-.03,.92,.11,.3,.33,.53,.63,.66,.29,.13,.61,.14,.92,.02,.3-.11,.53-.33,.66-.63l2.65-5.91-2.18-.98Zm4.85-1.31c-.92,0-1.83-.19-2.7-.58-1.61-.72-2.84-2.02-3.47-3.67-.63-1.64-.58-3.44,.14-5.05,.72-1.61,2.02-2.84,3.67-3.47,1.63-.62,3.44-.57,5.05,.14,1.61,.72,2.84,2.02,3.47,3.67,.63,1.65,.58,3.44-.14,5.05h0c-.72,1.61-2.02,2.84-3.67,3.47-.76,.29-1.56,.44-2.35,.44Zm0-12.96c-.77,0-1.54,.14-2.27,.42-1.59,.61-2.84,1.79-3.53,3.34-.69,1.55-.74,3.28-.14,4.86,.61,1.59,1.79,2.84,3.34,3.53,1.55,.69,3.28,.74,4.86,.14,1.59-.61,2.84-1.79,3.53-3.34h0c.7-1.55,.74-3.27,.14-4.86-.61-1.59-1.79-2.84-3.34-3.53-.83-.37-1.7-.56-2.59-.56Z"/></g><g><path class="b" d="M39.8,29.36c-1.31-.59-2.76-.63-4.1-.12-1.34,.51-2.4,1.51-2.98,2.82-1.21,2.7,0,5.87,2.7,7.08,.71,.32,1.45,.47,2.18,.47,2.05,0,4.01-1.18,4.9-3.17,.59-1.31,.63-2.76,.12-4.1-.51-1.34-1.51-2.4-2.81-2.98Zm2.06,6.79c-1.05,2.34-3.81,3.39-6.15,2.34-2.34-1.05-3.39-3.81-2.34-6.15,.77-1.73,2.48-2.75,4.25-2.75,.64,0,1.28,.13,1.9,.41,2.34,1.05,3.39,3.81,2.34,6.15Z"/><path class="b" d="M37.6,39.73c-.77,0-1.52-.16-2.23-.48-2.76-1.24-4-4.49-2.76-7.25,.6-1.34,1.68-2.36,3.05-2.88,1.37-.52,2.86-.48,4.2,.12h0c1.34,.6,2.36,1.68,2.88,3.05,.52,1.37,.48,2.86-.12,4.2-.88,1.97-2.85,3.24-5.01,3.24Zm.01-10.72c-.63,0-1.26,.11-1.87,.35-1.31,.5-2.34,1.47-2.91,2.75-1.18,2.63,0,5.74,2.64,6.92,.68,.3,1.4,.46,2.13,.46,2.07,0,3.94-1.21,4.78-3.09,.57-1.28,.61-2.7,.11-4-.5-1.31-1.47-2.34-2.75-2.91h0c-.68-.31-1.41-.46-2.14-.46Zm-.01,10.01c-.65,0-1.31-.13-1.94-.42-1.16-.52-2.05-1.47-2.51-2.66-.46-1.19-.42-2.49,.1-3.65,.77-1.72,2.48-2.82,4.37-2.82,.67,0,1.33,.14,1.95,.42,1.16,.52,2.05,1.47,2.51,2.66,.46,1.19,.42,2.49-.1,3.65-.79,1.77-2.54,2.82-4.37,2.82Zm.01-9.3c-1.78,0-3.41,1.05-4.14,2.68-1.02,2.28,0,4.96,2.28,5.98,2.28,1.02,4.96,0,5.98-2.28,.49-1.1,.53-2.33,.1-3.46-.43-1.13-1.28-2.03-2.38-2.52-.59-.26-1.21-.4-1.85-.4Z"/></g></svg>